<svg width="18" height="18" viewBox="0 0 18 18" fill="none" xmlns="http://www.w3.org/2000/svg">
<g id="Group">
<path id="Vector" d="M11.1159 3.00524L1.21212 12.9098C1.16225 12.9598 1.12671 13.0223 1.1092 13.0907L0.0114199 17.4968C-0.00472561 17.5622 -0.00373615 17.6307 0.0142927 17.6955C0.0323216 17.7604 0.0667806 17.8196 0.114341 17.8673C0.187394 17.9401 0.286304 17.981 0.389444 17.9811C0.421261 17.9811 0.452956 17.9772 0.483812 17.9694L4.88995 16.8715C4.95846 16.8543 5.02099 16.8187 5.07086 16.7687L14.9756 6.86482L11.1159 3.00524ZM17.4292 1.65476L16.3267 0.552343C15.5899 -0.18448 14.3057 -0.183749 13.5697 0.552343L12.2192 1.90282L16.0787 5.76226L17.4292 4.41182C17.7972 4.04392 17.9999 3.5542 17.9999 3.03338C17.9999 2.51256 17.7972 2.02285 17.4292 1.65476Z" fill="black"/>
</g>
</svg>
