<svg width="23" height="26" viewBox="0 0 23 26" fill="none" xmlns="http://www.w3.org/2000/svg">
<g id="Group">
<path id="Vector" d="M16.7707 24.7812C16.7707 25.1045 16.6423 25.4145 16.4137 25.643C16.1851 25.8716 15.8751 26 15.5519 26H4.0625C2.98543 25.9988 1.95282 25.5704 1.19121 24.8088C0.42961 24.0472 0.00120966 23.0146 0 21.9375V4.0625C0.00120966 2.98543 0.42961 1.95282 1.19121 1.19121C1.95282 0.42961 2.98543 0.00120966 4.0625 0L15.5519 0C15.8751 0 16.1851 0.128404 16.4137 0.356964C16.6423 0.585524 16.7707 0.895517 16.7707 1.21875C16.7707 1.54198 16.6423 1.85198 16.4137 2.08054C16.1851 2.3091 15.8751 2.4375 15.5519 2.4375H4.0625C3.63167 2.43797 3.21862 2.60933 2.91397 2.91397C2.60933 3.21862 2.43797 3.63167 2.4375 4.0625V21.9375C2.43796 22.3683 2.60931 22.7814 2.91396 23.086C3.2186 23.3907 3.63166 23.562 4.0625 23.5625H15.5519C15.8751 23.5625 16.1851 23.6909 16.4137 23.9195C16.6423 24.148 16.7707 24.458 16.7707 24.7812ZM22.2831 12.1382L16.4915 6.34654C16.3788 6.23129 16.2443 6.13955 16.0959 6.07663C15.9475 6.0137 15.7881 5.98084 15.6269 5.97995C15.4657 5.97905 15.3059 6.01015 15.1568 6.07143C15.0077 6.13271 14.8723 6.22295 14.7583 6.33694C14.6443 6.45093 14.5541 6.5864 14.4928 6.7355C14.4316 6.8846 14.4005 7.04438 14.4014 7.20557C14.4023 7.36676 14.4352 7.52618 14.4981 7.67457C14.5611 7.82297 14.6528 7.95741 14.7681 8.07011L18.479 11.7812H8.88464C8.5614 11.7813 8.25141 11.9097 8.02285 12.1382C7.79429 12.3668 7.66589 12.6768 7.66589 13C7.66589 13.3232 7.79429 13.6332 8.02285 13.8618C8.25141 14.0903 8.5614 14.2188 8.88464 14.2188H18.479L14.7679 17.9298C14.6542 18.0429 14.564 18.1773 14.5023 18.3253C14.4407 18.4733 14.4088 18.632 14.4086 18.7923C14.4084 18.9526 14.4398 19.1114 14.501 19.2596C14.5623 19.4078 14.6522 19.5424 14.7656 19.6558C14.8789 19.7691 15.0135 19.859 15.1617 19.9203C15.3099 19.9815 15.4687 20.0129 15.629 20.0127C15.7893 20.0125 15.948 19.9807 16.096 19.919C16.244 19.8573 16.3784 19.7671 16.4915 19.6534L22.2831 13.8618C22.5117 13.6332 22.6401 13.3233 22.6401 13C22.6401 12.6768 22.5117 12.3668 22.2831 12.1382Z" fill="#FF0000"/>
</g>
</svg>
