<svg width="26" height="26" viewBox="0 0 26 26" fill="none" xmlns="http://www.w3.org/2000/svg">
<g id="Frame">
<g id="Group">
<path id="Layer 2" d="M23.7331 9.62002C23.259 9.55115 22.8066 9.37622 22.4094 9.10825C22.0123 8.84027 21.6808 8.48616 21.4395 8.07228C21.1982 7.6584 21.0533 7.19542 21.0158 6.71782C20.9782 6.24021 21.0489 5.76028 21.2225 5.31377C21.3329 5.02186 21.3492 4.70273 21.269 4.40111C21.1889 4.0995 21.0164 3.83052 20.7756 3.6319C19.7129 2.7395 18.5033 2.03846 17.2006 1.56002C16.904 1.44983 16.5802 1.43606 16.2753 1.52068C15.9704 1.6053 15.6999 1.78398 15.5025 2.03127C15.2054 2.41124 14.8256 2.71855 14.392 2.92991C13.9584 3.14126 13.4824 3.2511 13 3.2511C12.5177 3.2511 12.0416 3.14126 11.608 2.92991C11.1744 2.71855 10.7947 2.41124 10.4975 2.03127C10.3001 1.78398 10.0297 1.6053 9.72476 1.52068C9.41985 1.43606 9.09602 1.44983 8.79939 1.56002C7.59662 2.00173 6.47206 2.63258 5.46814 3.42877C5.21508 3.6291 5.03281 3.90519 4.94801 4.21661C4.86321 4.52803 4.88034 4.85842 4.99689 5.1594C5.18438 5.61772 5.26184 6.1136 5.22307 6.60727C5.1843 7.10094 5.03036 7.57865 4.77362 8.00208C4.51687 8.42551 4.16447 8.78287 3.74466 9.04551C3.32486 9.30814 2.84935 9.46873 2.35627 9.5144C2.03615 9.54862 1.73548 9.68473 1.49852 9.90267C1.26156 10.1206 1.10084 10.4089 1.04002 10.725C0.888728 11.4739 0.812518 12.236 0.812518 13C0.811406 13.6396 0.863039 14.2783 0.966893 14.9094C1.01858 15.2357 1.17631 15.5358 1.4157 15.7635C1.65509 15.9911 1.96281 16.1336 2.29127 16.1688C2.79518 16.2161 3.28043 16.3834 3.7064 16.6567C4.13238 16.93 4.48669 17.3014 4.73968 17.7397C4.99267 18.1781 5.13698 18.6707 5.16052 19.1762C5.18407 19.6818 5.08617 20.1857 4.87502 20.6456C4.73683 20.9448 4.70256 21.2816 4.77763 21.6025C4.8527 21.9234 5.03282 22.2101 5.28939 22.4169C6.34573 23.2931 7.54373 23.9828 8.83189 24.4563C8.99662 24.5133 9.16945 24.5435 9.34377 24.5456C9.58278 24.5451 9.81819 24.4873 10.0302 24.377C10.2423 24.2668 10.4248 24.1073 10.5625 23.9119C10.8521 23.49 11.2403 23.1451 11.6934 22.9072C12.1465 22.6694 12.6508 22.5457 13.1625 22.5469C13.6583 22.5475 14.1472 22.6639 14.5901 22.8868C15.033 23.1096 15.4178 23.4328 15.7138 23.8306C15.9106 24.0953 16.1895 24.2874 16.5069 24.377C16.8244 24.4667 17.1625 24.4488 17.4688 24.3263C18.6466 23.8522 19.7432 23.197 20.7188 22.3844C20.9638 22.1818 21.1383 21.9067 21.2172 21.5986C21.296 21.2906 21.2751 20.9655 21.1575 20.67C20.9664 20.2176 20.8831 19.727 20.9141 19.2368C20.9451 18.7467 21.0897 18.2705 21.3363 17.8458C21.5829 17.4211 21.9249 17.0595 22.3352 16.7896C22.7456 16.5197 23.213 16.3489 23.7006 16.2906C24.0169 16.2469 24.3109 16.1037 24.5403 15.8816C24.7696 15.6596 24.9223 15.3703 24.9763 15.0556C25.1068 14.3779 25.1774 13.6901 25.1875 13C25.1877 12.2721 25.1197 11.5458 24.9844 10.8306C24.9295 10.523 24.7791 10.2404 24.5545 10.023C24.3299 9.80572 24.0425 9.6647 23.7331 9.62002ZM17.0625 13C17.0625 13.8035 16.8243 14.589 16.3779 15.257C15.9315 15.9251 15.297 16.4458 14.5547 16.7533C13.8123 17.0608 12.9955 17.1412 12.2075 16.9845C11.4194 16.8277 10.6955 16.4408 10.1274 15.8726C9.55925 15.3045 9.17233 14.5806 9.01558 13.7926C8.85882 13.0045 8.93928 12.1877 9.24676 11.4454C9.55424 10.703 10.0749 10.0686 10.743 9.62218C11.4111 9.17578 12.1965 8.93752 13 8.93752C14.0775 8.93752 15.1108 9.36553 15.8726 10.1274C16.6345 10.8893 17.0625 11.9226 17.0625 13Z" fill="black"/>
</g>
</g>
</svg>
